<svg width="99" height="41" viewBox="0 0 99 41" fill="none" xmlns="http://www.w3.org/2000/svg">
<ellipse cx="50.494" cy="4.20904" rx="4.20497" ry="4.20904" fill="#FFBB0C"/>
<path fill-rule="evenodd" clip-rule="evenodd" d="M52.9847 12.2421C53.9848 11.6383 55.1185 11.596 56.0807 11.7993L56.261 11.8374L56.4321 11.9061C61.3685 13.8893 62.9788 18.5678 63.3106 22.5924C63.5319 22.4883 63.7331 22.3331 63.9233 22.1244C64.7126 21.2584 66.053 21.1976 66.9171 21.9886C67.7813 22.7796 67.842 24.123 67.0527 24.989C65.9034 26.2501 64.5554 26.8233 63.2177 26.9628C63.0079 28.6533 62.6089 30.1691 62.1012 31.2227C58.3157 39.08 51.7405 41.8217 45.6711 40.6996C39.7944 39.6132 34.5994 34.9094 33.4322 28.5025C33.222 27.3486 33.9849 26.2424 35.1363 26.0318C36.2876 25.8211 37.3913 26.5857 37.6015 27.7396C38.4316 32.2964 42.1768 35.7344 46.4399 36.5225C50.5102 37.275 55.2744 35.6239 58.2847 29.3758C58.5648 28.7942 58.8849 27.6378 59.0431 26.1719C57.0851 25.2833 55.4282 23.8638 54.527 22.8673L54.4796 22.815L54.4359 22.7597C53.2574 21.2685 52.4171 19.9093 51.8865 18.6837C51.3643 17.4774 51.0882 16.2748 51.2089 15.1525C51.3365 13.9653 51.9205 12.8847 52.9847 12.2421ZM58.8204 21.0755C58.3426 18.9153 57.3009 17.1251 55.482 16.1425C55.5329 16.3594 55.6221 16.6408 55.7746 16.9931C56.1132 17.7754 56.7178 18.798 57.7123 20.0641C58.002 20.3778 58.3835 20.7309 58.8204 21.0755Z" fill="white"/>
<path fill-rule="evenodd" clip-rule="evenodd" d="M3.74502e-06 8.16801C0.00209115 7.08773 0.876527 6.21265 1.9549 6.21265C3.03327 6.21265 3.9077 7.08773 3.90979 8.16801L3.90997 16.5878C6.55184 13.7812 10.3033 12.0337 14.4246 12.0337C22.4559 12.0337 28.9021 18.4942 28.9021 26.4904C28.9021 34.4865 22.4559 41 14.4246 41C6.44616 41 0 34.4865 0 26.4904L3.74502e-06 8.16801ZM24.9921 26.4904C24.9921 20.6653 20.2896 15.9524 14.4246 15.9524C8.6125 15.9524 3.90997 20.6653 3.90997 26.4904C3.90997 32.3154 8.6125 37.0813 14.4246 37.0813C20.2896 37.0813 24.9921 32.3154 24.9921 26.4904Z" fill="white"/>
<path fill-rule="evenodd" clip-rule="evenodd" d="M99 8.16801V26.4904C99 34.4865 92.5538 41 84.5754 41C76.5969 41 70.0979 34.4865 70.0979 26.4904C70.0979 18.4942 76.5969 12.0337 84.5754 12.0337C88.6967 12.0337 92.4482 13.7812 95.09 16.5878V8.16801C95.0921 7.08773 95.9666 6.21265 97.045 6.21265C98.1234 6.21265 98.9979 7.08773 99 8.16801ZM84.5754 37.0813C90.3875 37.0813 95.09 32.3154 95.09 26.4904C95.09 20.6653 90.3875 15.9524 84.5754 15.9524C78.7633 15.9524 74.0079 20.6653 74.0079 26.4904C74.0079 32.3154 78.7633 37.0813 84.5754 37.0813Z" fill="white"/>
</svg>
