<svg width="18" height="18" viewBox="0 0 18 18" fill="none" xmlns="http://www.w3.org/2000/svg">
<g clip-path="url(#clip0_2458_2717)">
<path d="M2.44375 0.203461C1.56454 0.203461 0.849998 0.918006 0.849998 1.79721C0.849998 2.67642 1.56454 3.39096 2.44375 3.39096C2.73992 3.39096 3.01352 3.30463 3.25125 3.16385L3.9658 3.75753L1.16079 5.03253C0.970872 5.11886 0.850012 5.30745 0.850012 5.51598V11.891C0.850012 12.0995 0.972202 12.2881 1.16079 12.3744L2.85682 13.1447L2.50621 14.0213C2.48496 14.02 2.46504 14.0146 2.44379 14.0146C1.56458 14.0146 0.850036 14.7292 0.850036 15.6084C0.850036 16.4876 1.56458 17.2021 2.44379 17.2021C3.32299 17.2021 4.03754 16.4876 4.03754 15.6084C4.03754 15.1329 3.82371 14.7106 3.49299 14.4184L3.82635 13.5843L7.0059 15.0293C7.07629 15.0612 7.15067 15.0772 7.22637 15.0772C7.30207 15.0772 7.37645 15.0612 7.44684 15.0293L13.2908 12.3731C13.4807 12.2868 13.6015 12.0982 13.6015 11.8896V9.30245L14.421 9.07932C14.7092 9.49235 15.186 9.76462 15.7265 9.76462C16.6058 9.76462 17.3203 9.05008 17.3203 8.17087C17.3203 7.29167 16.6058 6.57712 15.7265 6.57712C14.8885 6.57712 14.2058 7.23057 14.1448 8.05402L13.6015 8.20144V5.51465C13.6015 5.30614 13.4794 5.11753 13.2908 5.03121L7.44684 2.37495C7.30739 2.3112 7.14668 2.3112 7.00722 2.37495L5.04294 3.26745L3.93528 2.34707C3.99903 2.17442 4.03888 1.9898 4.03888 1.7959C4.03888 0.916693 3.32433 0.202148 2.44513 0.202148L2.44375 0.203461ZM2.44375 16.141C2.15023 16.141 1.9125 15.9032 1.9125 15.6097C1.9125 15.3162 2.15023 15.0785 2.44375 15.0785C2.73727 15.0785 2.975 15.3162 2.975 15.6097C2.975 15.9032 2.73727 16.141 2.44375 16.141ZM15.7248 7.64097C16.0184 7.64097 16.2561 7.8787 16.2561 8.17222C16.2561 8.46573 16.0184 8.70347 15.7248 8.70347C15.4313 8.70347 15.1936 8.46573 15.1936 8.17222C15.1936 7.8787 15.4313 7.64097 15.7248 7.64097ZM4.07575 10.1007L3.2523 12.1593L1.91223 11.551V6.34353L6.69331 8.51633V13.7238L4.22035 12.6002L5.0624 10.4964L4.07561 10.102L4.07575 10.1007ZM10.0217 10.2786L12.5385 9.59333V11.5483L7.75738 13.7211V8.51369L12.5385 6.34089V8.49244L9.74274 9.25347L10.023 10.2788L10.0217 10.2786ZM7.22596 3.44395L11.7854 5.51717L7.22596 7.59039L2.66655 5.51717L7.22596 3.44395ZM2.44487 2.32967C2.15136 2.32967 1.91362 2.09193 1.91362 1.79842C1.91362 1.5049 2.15136 1.26717 2.44487 1.26717C2.73839 1.26717 2.97612 1.5049 2.97612 1.79842C2.97612 2.09193 2.73839 2.32967 2.44487 2.32967Z" fill="#EEEEEE"/>
</g>
<defs>
<clipPath id="clip0_2458_2717">
<rect width="17.08" height="17.08" fill="white" transform="translate(0.344139 0.202148)"/>
</clipPath>
</defs>
</svg>
