<svg width="1rem" height="1rem" viewBox="0 0 16 16" fill="none" xmlns="http://www.w3.org/2000/svg">
<path fill-rule="evenodd" clip-rule="evenodd" d="M8.94486 0.607148C8.51826 -0.108634 7.48166 -0.108631 7.05505 0.607149L0.164474 12.1685C-0.27253 12.9018 0.255803 13.8317 1.10938 13.8317H14.8906C15.7441 13.8317 16.2725 12.9018 15.8355 12.1685L8.94486 0.607148ZM7.91406 1.11912C7.95284 1.05404 8.04708 1.05405 8.08586 1.11912L14.9765 12.6805C15.0162 12.7472 14.9682 12.8317 14.8906 12.8317H1.10938C1.03178 12.8317 0.983751 12.7472 1.02348 12.6805L7.91406 1.11912ZM7.28199 4.78357C7.26632 4.37623 7.59231 4.03746 7.99996 4.03746C8.40761 4.03746 8.7336 4.37623 8.71793 4.78357L8.55379 9.0512C8.54235 9.34879 8.29777 9.58414 7.99996 9.58414C7.70215 9.58414 7.45758 9.34879 7.44613 9.0512L7.28199 4.78357ZM8.79984 11.1728C8.79984 11.6146 8.44167 11.9728 7.99984 11.9728C7.55801 11.9728 7.19984 11.6146 7.19984 11.1728C7.19984 10.7309 7.55801 10.3728 7.99984 10.3728C8.44167 10.3728 8.79984 10.7309 8.79984 11.1728Z" fill="#E82E2E"/>
</svg>
