<svg width="12" height="12" viewBox="0 0 12 12" fill="none" xmlns="http://www.w3.org/2000/svg">
<g clip-path="url(#clip0_432_19455)">
<path d="M2.24864 5.01773C2.17229 5.1566 2.02899 5.23461 1.88127 5.23461C1.81322 5.23461 1.74406 5.21801 1.67988 5.1826C1.23947 4.94027 0.872664 4.5812 0.620369 4.14357C0.251337 3.50455 0.15341 2.75986 0.344292 2.04722C0.535175 1.33458 0.992162 0.738746 1.63173 0.369686C2.95127 -0.392159 4.64433 0.0615146 5.40604 1.38105C5.65833 1.81868 5.78669 2.31552 5.77618 2.81837C5.7712 3.04632 5.58475 3.22834 5.35792 3.22834H5.34906C5.1178 3.22336 4.93467 3.03193 4.9391 2.80122C4.94629 2.45155 4.85722 2.10521 4.68128 1.80036C4.1507 0.880835 2.9706 0.564917 2.0511 1.0955C1.60573 1.35277 1.28705 1.76772 1.15371 2.26455C1.02093 2.76138 1.08898 3.28034 1.34625 3.72566C1.52219 4.0305 1.7778 4.28114 2.0843 4.44934C2.2868 4.56054 2.36093 4.81559 2.24918 5.01809L2.24864 5.01773ZM11.7045 9.21044C11.2116 8.3562 11.0766 7.7166 10.9576 7.15233C10.8708 6.73958 10.7883 6.35009 10.577 5.98328L9.23698 3.66286C8.98082 3.21914 8.44747 3.02274 7.9689 3.19645C7.82893 3.24735 7.70887 3.32315 7.61039 3.41941C7.49476 3.32315 7.35866 3.25177 7.20818 3.21195C6.93707 3.13947 6.6538 3.17598 6.41147 3.31596C6.25988 3.40338 6.13816 3.52343 6.05074 3.66175C5.76913 3.5688 5.45045 3.59093 5.17382 3.75083C5.10355 3.79177 5.03827 3.83935 4.98017 3.89357L3.99868 2.19337C3.84709 1.93057 3.60143 1.74301 3.30765 1.66389C3.01332 1.58478 2.70681 1.62517 2.444 1.77676C1.9007 2.09046 1.7137 2.78813 2.02739 3.3315L3.34472 5.61254C3.21858 5.63855 3.09575 5.68502 2.98122 5.75141C2.69961 5.91407 2.49767 6.17742 2.41302 6.49334C2.32838 6.80926 2.37153 7.1379 2.53419 7.41951L3.7984 9.60878C4.08721 10.1089 4.53868 10.4381 5.103 10.5604L5.92072 10.7374C6.25765 10.8105 6.50552 10.9908 6.67759 11.2896L6.96695 11.7909C7.04441 11.9253 7.18494 12 7.32989 12C7.40071 12 7.47319 11.9817 7.53903 11.9436C7.73932 11.8279 7.80791 11.5718 7.69228 11.3715L7.40292 10.8702C7.11411 10.3701 6.66265 10.0409 6.09833 9.9186L5.28061 9.74156C4.94367 9.66853 4.69581 9.48816 4.52373 9.1894L3.25952 7.00014C3.20862 6.91217 3.19534 6.8087 3.2219 6.70912C3.24845 6.60953 3.31208 6.52654 3.40005 6.47565C3.48801 6.42476 3.59148 6.41147 3.69107 6.43802C3.79065 6.46458 3.87365 6.52765 3.92454 6.61562V6.61618H3.92509L4.61391 7.80957C4.69137 7.94401 4.8319 8.01871 4.97685 8.01871C5.04767 8.01871 5.12014 8.00045 5.18599 7.96228C5.38628 7.84664 5.45487 7.59048 5.33924 7.3902L4.31514 5.61649L2.75332 2.91096C2.67033 2.76712 2.71958 2.58288 2.86342 2.49989C2.93203 2.46006 3.01336 2.44955 3.09137 2.47057C3.16938 2.49159 3.23467 2.54083 3.27396 2.60999L4.24384 4.29022V4.29077L4.93762 5.49247C5.01508 5.62691 5.15562 5.70161 5.30057 5.70161C5.37138 5.70161 5.44386 5.68335 5.50971 5.64517C5.70999 5.52954 5.77859 5.27338 5.66295 5.07309L5.50582 4.80033C5.50582 4.80033 5.50582 4.79978 5.50527 4.79978C5.47373 4.745 5.46544 4.68083 5.48203 4.61831C5.49863 4.55579 5.53791 4.50434 5.59269 4.47281C5.705 4.40808 5.85494 4.44791 5.91967 4.56023L5.92852 4.57627L6.027 4.74723L6.11718 4.9038C6.19464 5.03825 6.33517 5.11294 6.48012 5.11294C6.55094 5.11294 6.62342 5.09469 6.68926 5.05651C6.88955 4.94088 6.95815 4.68472 6.84251 4.48443L6.75233 4.32785C6.69479 4.22826 6.7302 4.09493 6.83034 4.03738C6.89618 3.99976 6.95925 4.00806 6.99134 4.01691C7.02343 4.02577 7.08263 4.04956 7.1208 4.11539L7.37973 4.56354C7.48153 4.73948 7.69399 4.81695 7.88486 4.74778C8.07574 4.67863 8.18915 4.48277 8.15429 4.28248C8.13437 4.16796 8.13548 4.02245 8.25332 3.97985C8.32027 3.9555 8.44366 3.96159 8.51059 4.07778L9.85059 6.3982C9.99554 6.64882 10.0581 6.94538 10.1372 7.32104C10.2628 7.91524 10.4188 8.65552 10.9787 9.62489C11.0943 9.82517 11.3505 9.89377 11.5508 9.77814C11.7511 9.66251 11.8197 9.40634 11.704 9.20606L11.7045 9.21044Z" fill="#D1B854"/>
</g>
<defs>
<clipPath id="clip0_432_19455">
<rect width="12" height="12" fill="white" transform="translate(0.00488281)"/>
</clipPath>
</defs>
</svg>
