<svg width="12" height="12" viewBox="0 0 12 12" fill="none" xmlns="http://www.w3.org/2000/svg">
<g clip-path="url(#clip0_432_19386)">
<path d="M11.6785 4.41879C11.6754 3.65916 11.4135 2.92281 10.936 2.33208C11.0979 1.6564 11.0473 0.947334 10.7904 0.302024C10.7398 0.17761 10.6366 0.0825287 10.5082 0.0430814C10.3271 -0.0186194 9.64031 -0.135954 8.24244 0.770348C7.64161 0.611543 7.02054 0.536693 6.39848 0.547817C5.77642 0.536691 5.15535 0.611541 4.55251 0.770348C3.1182 -0.156174 2.37172 -0.00647988 2.22203 0.0380323C2.09357 0.0795046 1.99039 0.176608 1.93983 0.302024C1.68291 0.945341 1.63032 1.65236 1.79013 2.32703C1.29653 2.9147 1.03252 3.66219 1.04971 4.42993C1.04971 7.29357 2.68832 8.15818 4.19042 8.46373C4.11355 8.65288 4.05994 8.85013 4.03263 9.0514C4.02959 9.07265 4.02959 9.0949 4.03263 9.11614V9.90915C2.6651 10.0235 2.37276 9.22337 2.34445 9.13232C2.33737 9.11108 2.32928 9.08984 2.32018 9.06961C2.05618 8.53049 1.5919 8.11678 1.02546 7.91752C0.788776 7.83762 0.531869 7.96608 0.451959 8.20378C0.373062 8.44149 0.501523 8.69738 0.73822 8.77729C1.05177 8.89058 1.31377 9.11412 1.47357 9.40644C1.65462 9.99411 2.39504 10.9237 4.02658 10.8205V11.566H4.02759C4.02759 11.8158 4.22989 12.0191 4.48074 12.0191C4.73058 12.0191 4.93389 11.8158 4.93389 11.566V9.15053C4.96828 8.88654 5.08258 8.63972 5.26262 8.44349C5.39108 8.32312 5.43761 8.13902 5.38198 7.97214C5.32635 7.80423 5.17867 7.68587 5.00369 7.66666C3.42372 7.48257 1.96422 6.96265 1.96422 4.41175H1.96321C1.94197 3.78869 2.1827 3.18582 2.62675 2.74885C2.74611 2.61938 2.78657 2.4353 2.72992 2.26737C2.57719 1.82435 2.56707 1.34388 2.7016 0.894772C3.2569 1.0202 3.77986 1.26498 4.232 1.61191C4.34933 1.6898 4.49599 1.71003 4.63054 1.66653C5.20609 1.49155 5.8059 1.41063 6.40673 1.4258C7.00755 1.41063 7.60636 1.49155 8.1809 1.66653C8.31442 1.71104 8.46208 1.69081 8.57944 1.61191C9.01539 1.27811 9.51305 1.03636 10.0451 0.899821C10.1766 1.35398 10.1655 1.83849 10.0117 2.28558C9.96014 2.4373 9.99352 2.60522 10.0997 2.72557C10.5286 3.18377 10.7714 3.7846 10.7805 4.41173C10.7805 6.95664 9.24501 7.48563 7.74099 7.66663C7.55589 7.68686 7.40315 7.81836 7.35561 7.99738C7.30705 8.17642 7.37381 8.36658 7.52351 8.47684C7.68434 8.59822 7.87045 8.94011 7.87045 9.51261V11.5639V11.5629C7.87045 11.8138 8.07274 12.0161 8.3236 12.0161C8.57343 12.0161 8.77674 11.8138 8.77674 11.5629V9.51261C8.78079 9.15151 8.71504 8.79345 8.58254 8.45863C9.79936 8.19969 11.6787 7.39961 11.6787 4.41861L11.6785 4.41879Z" fill="#B3B3B3"/>
</g>
<defs>
<clipPath id="clip0_432_19386">
<rect width="12" height="12" fill="white"/>
</clipPath>
</defs>
</svg>
