<svg width="14" height="14" viewBox="0 0 14 14" fill="none" xmlns="http://www.w3.org/2000/svg">
<g clip-path="url(#clip0_476_19005)">
<path fill-rule="evenodd" clip-rule="evenodd" d="M2.56106 0H11.439C12.1445 0 12.7849 0.288749 13.247 0.750861C13.7113 1.21516 14 1.85554 14 2.56106V11.439C14 12.1445 13.7113 12.7849 13.247 13.247C12.7827 13.7113 12.1423 14 11.439 14H2.56106C1.85558 14 1.2152 13.7113 0.750861 13.247C0.288749 12.7848 0 12.1445 0 11.439V2.56106C0 1.85778 0.288749 1.21738 0.750861 0.753101V0.750913C1.21516 0.288802 1.85554 0 2.56106 0ZM11.439 1.0932H2.56106C2.15747 1.0932 1.78997 1.25781 1.52419 1.52359C1.25842 1.78936 1.0938 2.15686 1.0938 2.56046V11.4384C1.0938 11.842 1.25842 12.2095 1.52419 12.4753C1.78997 12.741 2.15747 12.9057 2.56106 12.9057H11.439C11.8426 12.9057 12.2101 12.741 12.4759 12.4753C12.7416 12.2095 12.9063 11.842 12.9063 11.4384V2.56046C12.9063 2.15686 12.7416 1.78936 12.4759 1.52359C12.2101 1.25781 11.8426 1.0932 11.439 1.0932ZM3.89819 4.37116C3.59633 4.37116 3.35022 4.12561 3.35022 3.82318C3.35022 3.5235 3.59577 3.27741 3.89819 3.27741H10.1024C10.4043 3.27741 10.6504 3.52295 10.6504 3.82318C10.6504 4.12505 10.4049 4.37116 10.1024 4.37116H3.89819ZM3.89819 7.54523C3.59633 7.54523 3.35022 7.30187 3.35022 6.99946C3.35022 6.69759 3.59577 6.45368 3.89819 6.45368H7.00003C7.3019 6.45368 7.5458 6.69704 7.5458 6.99946C7.5458 7.30132 7.30244 7.54523 7.00003 7.54523H3.89819ZM3.89819 10.7215C3.59633 10.7215 3.35022 10.476 3.35022 10.1736C3.35022 9.87389 3.59577 9.6278 3.89819 9.6278H10.1024C10.4043 9.6278 10.6504 9.87334 10.6504 10.1736C10.6504 10.4754 10.4049 10.7215 10.1024 10.7215H3.89819Z" fill="#757575"/>
</g>
<defs>
<clipPath id="clip0_476_19005">
<rect width="14" height="14" fill="white"/>
</clipPath>
</defs>
</svg>
