<svg width="12" height="14" viewBox="0 0 12 14" fill="none" xmlns="http://www.w3.org/2000/svg">
<path fill-rule="evenodd" clip-rule="evenodd" d="M4.62473 4.78169C2.98609 5.36303 1.81069 6.92862 1.81069 8.76532C1.81069 11.0976 3.70404 12.9911 6.03644 12.9911C8.11396 12.9911 9.84413 11.4879 10.1965 9.51072C10.245 9.23645 10.5073 9.0536 10.7816 9.10278C11.0559 9.15133 11.2381 9.41363 11.1895 9.6879C10.7532 12.1375 8.61019 14 6.03632 14C3.14739 14 0.801758 11.6545 0.801758 8.76544C0.801758 6.59139 2.13025 4.72515 4.01868 3.9344V1.00882H3.51427C3.23558 1.00882 3.00986 0.782473 3.00986 0.50441C3.00986 0.225717 3.23558 0 3.51427 0H8.55837C8.83706 0 9.06278 0.225717 9.06278 0.50441C9.06278 0.782473 8.83706 1.00882 8.55837 1.00882H8.05396V3.93504C9.54702 4.55988 10.6895 5.85745 11.1032 7.44767C11.1732 7.71691 11.0111 7.99307 10.7419 8.06242C10.4727 8.13241 10.1965 7.97037 10.1265 7.70114C9.77343 6.34175 8.75893 5.2472 7.44806 4.78186C7.40644 4.77366 7.36672 4.75979 7.33015 4.74213C6.92222 4.61099 6.48778 4.53974 6.03634 4.53974C5.58491 4.53974 5.15047 4.61036 4.74254 4.74213C4.70534 4.75979 4.66624 4.77366 4.62463 4.78186L4.62473 4.78169ZM7.04526 3.62849V1.22427H5.02762V3.62849C5.35422 3.56481 5.69155 3.53139 6.03644 3.53139C6.38132 3.53139 6.71866 3.56481 7.04526 3.62849ZM8.45697 8.68647C8.45697 8.40841 8.68269 8.18206 8.96138 8.18206C9.24008 8.18206 9.46579 8.40841 9.46579 8.68647C9.46579 10.6095 7.90464 12.1707 5.98157 12.1707C5.70288 12.1707 5.47716 11.945 5.47716 11.6663C5.47716 11.3876 5.70288 11.1619 5.98157 11.1619C7.34788 11.1619 8.45697 10.0528 8.45697 8.68647ZM4.12034 5.86549C4.67708 5.86549 5.12916 6.31757 5.12916 6.87431C5.12916 7.43105 4.67708 7.88313 4.12034 7.88313C3.5636 7.88313 3.11152 7.43105 3.11152 6.87431C3.11152 6.31757 3.5636 5.86549 4.12034 5.86549Z" fill="#EEEEEE"/>
</svg>
