<svg width="12" height="12" viewBox="0 0 12 12" fill="none" xmlns="http://www.w3.org/2000/svg">
<path d="M2.50181 1.5H9.50187C10.0541 1.5 10.5017 2.0522 10.5017 2.49986V9.49992C10.5017 10.0521 10.0541 10.4998 9.50187 10.4998H2.50181C1.94961 10.4998 1.50195 9.94757 1.50195 9.49992V2.49986C1.50195 1.94765 1.94961 1.5 2.50181 1.5Z" stroke="#D1B854" stroke-width="0.8" stroke-linecap="round" stroke-linejoin="round"/>
<path d="M5.00197 4.25025C5.00197 4.66416 4.66587 5.00026 4.25196 5.00026C3.83758 5.00026 3.50195 4.66416 3.50195 4.25025C3.50195 3.83587 3.83758 3.50024 4.25196 3.50024C4.66587 3.50024 5.00197 3.83587 5.00197 4.25025Z" stroke="#D1B854" stroke-width="0.8" stroke-linecap="round" stroke-linejoin="round"/>
<path d="M10.5024 7.50011L8.0025 5.00024L2.50195 10.5003" stroke="#D1B854" stroke-width="0.8" stroke-linecap="round" stroke-linejoin="round"/>
</svg>
