<svg width="14" height="14" viewBox="0 0 14 14" fill="none" xmlns="http://www.w3.org/2000/svg">
<g clip-path="url(#clip0_476_19014)">
<path fill-rule="evenodd" clip-rule="evenodd" d="M4.24246 2.7578C4.24246 1.6256 5.16055 0.70752 6.29274 0.70752H7.70731C8.83951 0.70752 9.75759 1.62561 9.75759 2.7578V7.22354C9.99756 7.12478 10.26 7.07108 10.5351 7.07108H11.9497C13.0819 7.07108 14 7.98918 14 9.12136V11.2426C14 12.3748 13.0819 13.2929 11.9497 13.2929H2.05028C0.918078 13.2929 0 12.3748 0 11.2426V7.70745C0 6.57458 0.918095 5.65649 2.05028 5.65649H3.46486C3.73995 5.65649 4.00246 5.71084 4.24241 5.80961L4.24246 2.7578ZM5.51519 7.70752V12.0202H8.48488V2.7578C8.48488 2.32826 8.13687 1.98025 7.70733 1.98025H6.29275C5.86322 1.98025 5.5152 2.32826 5.5152 2.7578L5.51519 7.70752ZM4.24246 7.70752C4.24246 7.27798 3.89444 6.92931 3.46491 6.92931H2.05033C1.62079 6.92931 1.27278 7.27798 1.27278 7.70752V11.2426C1.27278 11.6722 1.62079 12.0202 2.05033 12.0202H4.24248L4.24246 7.70752ZM9.75761 9.12144V9.12011C9.75827 8.69123 10.1063 8.34388 10.5352 8.34388H11.9497C12.3793 8.34388 12.7273 8.6919 12.7273 9.12143V11.2426C12.7273 11.6722 12.3793 12.0202 11.9497 12.0202H9.75759L9.75761 9.12144Z" fill="#757575"/>
</g>
<defs>
<clipPath id="clip0_476_19014">
<rect width="14" height="14" fill="white"/>
</clipPath>
</defs>
</svg>
