<svg width="14" height="14" viewBox="0 0 14 14" fill="none" xmlns="http://www.w3.org/2000/svg">
<path d="M10.3447 5.81445C10.5445 5.61488 10.8686 5.61483 11.0684 5.81445L12.3037 7.0498C12.5035 7.24963 12.5035 7.57361 12.3037 7.77344C12.1039 7.97317 11.7799 7.97313 11.5801 7.77344L11.2178 7.41113V8.64746C11.2176 10.067 10.0665 11.2178 8.64648 11.2178H3.80664V13.5879C3.80664 13.7521 3.74392 13.8831 3.64453 13.9717C3.54688 14.0585 3.41906 14.0996 3.29492 14.0996C3.17072 14.0996 3.04302 14.0586 2.94531 13.9717C2.84578 13.8831 2.7832 13.7523 2.7832 13.5879V7.41113L2.4209 7.77344C2.22105 7.97306 1.89704 7.97319 1.69727 7.77344C1.49747 7.57361 1.49745 7.24962 1.69727 7.0498L2.93262 5.81445C3.13235 5.61477 3.4564 5.61495 3.65625 5.81445L4.8916 7.0498C5.09143 7.24963 5.09143 7.57361 4.8916 7.77344C4.69175 7.97303 4.36773 7.97318 4.16797 7.77344L3.80664 7.41211V10.1943H8.64648C9.50173 10.1943 10.1951 9.50155 10.1953 8.64746V7.41113L9.83301 7.77344C9.63322 7.97319 9.30922 7.97311 9.10938 7.77344C8.90955 7.57361 8.90955 7.24963 9.10938 7.0498L10.3447 5.81445ZM4.53027 -0.0996094C5.2675 -0.0996094 5.86521 0.498243 5.86523 1.23535V3.70605C5.86523 4.44327 5.26688 5.04102 4.53027 5.04102H2.05859C1.32163 5.04076 0.724609 4.44308 0.724609 3.70605V1.23535C0.724629 0.497796 1.32218 -0.0993566 2.05859 -0.0996094H4.53027ZM11.9424 -0.0996094C12.6795 -0.0995067 13.2773 0.498307 13.2773 1.23535V3.70605C13.2773 4.4432 12.6789 5.04091 11.9424 5.04102H9.4707C8.73362 5.0409 8.13574 4.44317 8.13574 3.70605V1.23535C8.13576 0.49771 8.73418 -0.0994954 9.4707 -0.0996094H11.9424ZM2.05859 0.923828C1.88718 0.924081 1.74807 1.06317 1.74805 1.23535V3.70605C1.74805 3.87762 1.88708 4.01733 2.05859 4.01758H4.53027C4.702 4.01758 4.8418 3.87778 4.8418 3.70605V1.23535C4.84178 1.06301 4.7019 0.923828 4.53027 0.923828H2.05859ZM9.4707 0.923828C9.29917 0.923942 9.1592 1.06308 9.15918 1.23535V3.70605C9.15918 3.87771 9.29907 4.01746 9.4707 4.01758H11.9424C12.114 4.01748 12.2539 3.87772 12.2539 3.70605V1.23535C12.2539 1.06307 12.1139 0.923931 11.9424 0.923828H9.4707Z" fill="#EEEEEE" stroke="#EEEEEE" stroke-width="0.2"/>
</svg>
