<svg width="12" height="12" viewBox="0 0 12 12" fill="none" xmlns="http://www.w3.org/2000/svg">
<g clip-path="url(#clip0_432_19388)">
<path fill-rule="evenodd" clip-rule="evenodd" d="M2.56438 9.96802L0.729778 11.8035C0.56261 11.9698 0.291923 11.9698 0.12474 11.8035C-0.04158 11.6363 -0.04158 11.3656 0.12474 11.1984L2.32596 8.9972C1.54614 7.93142 1.62589 6.43038 2.56442 5.45283V1.28217C2.56442 0.573625 3.13889 0 3.84744 0H9.06538H9.08999H9.10441C9.12308 0 9.1409 0.000848512 9.15872 0.00339427C9.46591 0.0254564 9.75696 0.158681 9.97589 0.378469L11.5975 2.01365C11.8368 2.2538 11.97 2.5788 11.97 2.91738V10.6878C11.97 11.0281 11.8351 11.3539 11.5941 11.5941C11.3539 11.8351 11.0281 11.97 10.6878 11.97H3.84757C3.5073 11.97 3.1806 11.8351 2.94045 11.5941C2.7003 11.3539 2.56452 11.0281 2.56452 10.6878L2.56438 9.96802ZM3.41973 4.84784C4.43801 4.38706 5.67939 4.57545 6.51617 5.41214C7.59556 6.49153 7.59556 8.24377 6.51617 9.3232C5.67948 10.1599 4.43803 10.3483 3.41973 9.88751V10.6877C3.41973 10.8006 3.4647 10.91 3.54532 10.9898C3.62508 11.0704 3.7337 11.1154 3.8474 11.1154H10.6876C10.8005 11.1154 10.91 11.0704 10.9897 10.9898C11.0703 10.91 11.1153 10.8006 11.1153 10.6877V3.30266H9.95957C9.61929 3.30266 9.29259 3.16774 9.05244 2.92674C8.81229 2.68659 8.67652 2.35989 8.67652 2.02046V0.85453H3.84743C3.61154 0.85453 3.41974 1.0463 3.41974 1.28222L3.41973 4.84784ZM3.20929 8.71806C3.95518 9.46395 5.16608 9.46395 5.91123 8.71891C6.65712 7.97302 6.65712 6.76212 5.91123 6.01631C5.16619 5.27127 3.95529 5.27127 3.20929 6.01631C2.46424 6.7622 2.46424 7.97291 3.20929 8.71806ZM10.8244 2.4472L9.53203 1.14549V2.02035C9.53203 2.13321 9.577 2.24182 9.65762 2.32244C9.73738 2.4022 9.846 2.44718 9.9597 2.44718L10.8244 2.4472ZM4.72405 2.5643C4.48816 2.5643 4.29636 2.37337 4.29636 2.13748C4.29636 1.90158 4.48814 1.70979 4.72405 1.70979H6.43392C6.66981 1.70979 6.8616 1.90156 6.8616 2.13748C6.8616 2.37337 6.66983 2.5643 6.43392 2.5643H4.72405ZM7.50225 5.1296C7.26635 5.1296 7.07543 4.93867 7.07543 4.70278C7.07543 4.46604 7.26636 4.27509 7.50225 4.27509H9.83251C10.0684 4.27509 10.2602 4.46602 10.2602 4.70278C10.2602 4.93867 10.0684 5.1296 9.83251 5.1296H7.50225ZM8.14376 8.55015C7.90786 8.55015 7.71607 8.35838 7.71607 8.12246C7.71607 7.88657 7.90784 7.69477 8.14376 7.69477H9.8324C10.0683 7.69477 10.2601 7.88655 10.2601 8.12246C10.2601 8.35836 10.0683 8.55015 9.8324 8.55015H8.14376ZM7.90871 6.84029C7.67282 6.84029 7.48102 6.64851 7.48102 6.4126C7.48102 6.17669 7.6728 5.98491 7.90871 5.98491H9.83242C10.0683 5.98491 10.2601 6.17669 10.2601 6.4126C10.2601 6.64851 10.0683 6.84029 9.83242 6.84029H7.90871Z" fill="#B3B3B3"/>
</g>
<defs>
<clipPath id="clip0_432_19388">
<rect width="12" height="12" fill="white"/>
</clipPath>
</defs>
</svg>
