<svg width="12" height="14" viewBox="0 0 12 14" fill="none" xmlns="http://www.w3.org/2000/svg">
<path d="M11.7545 3.66805C11.7405 3.30405 11.7405 2.95405 11.7405 2.61805C11.7405 2.35205 11.5305 2.14205 11.2645 2.14205C9.20646 2.12805 7.63846 1.54005 6.33646 0.280055C6.15446 0.0980547 5.84646 0.0980547 5.66446 0.280055C4.36246 1.54005 2.79446 2.12805 0.750461 2.12805C0.484461 2.12805 0.274461 2.33805 0.274461 2.60405C0.274461 2.94005 0.274461 3.29005 0.260461 3.66805C0.190461 7.12605 0.0924613 11.8441 5.84646 13.8321C5.90246 13.8461 5.94446 13.8601 6.00046 13.8601C6.05646 13.8601 6.11246 13.8461 6.15446 13.8321C11.9085 11.8441 11.8105 7.12605 11.7545 3.66805ZM6.00046 12.8661C1.07246 11.0741 1.14246 7.15405 1.21246 3.69605C1.21246 3.48605 1.22646 3.29005 1.22646 3.09405C3.14446 2.99605 4.68446 2.42205 6.00046 1.27405C7.31646 2.42205 8.85646 3.01005 10.7745 3.08005C10.7745 3.27605 10.7745 3.47205 10.7885 3.68205C10.8585 7.15405 10.9285 11.0741 6.00046 12.8661Z" fill="#EEEEEE"/>
<path d="M7.65287 5.3341L5.34287 7.6441L4.34887 6.6501C4.16687 6.4681 3.85887 6.4681 3.66287 6.6501C3.48087 6.8321 3.48087 7.1401 3.66287 7.3361L4.99287 8.6661C5.09087 8.7641 5.20287 8.8061 5.32887 8.8061C5.45487 8.8061 5.58087 8.7641 5.66487 8.6661L8.32487 6.0061C8.50687 5.8241 8.50687 5.5161 8.32487 5.3201C8.14287 5.1381 7.83487 5.1381 7.65287 5.3341Z" fill="#EEEEEE"/>
</svg>
