<svg width="14" height="14" viewBox="0 0 14 14" fill="none" xmlns="http://www.w3.org/2000/svg">
<path fill-rule="evenodd" clip-rule="evenodd" d="M7.03317 0C5.32838 0 3.7886 0.285936 2.6372 0.77464C2.06145 1.01896 1.58214 1.31086 1.22715 1.66833C0.872093 2.02581 0.636719 2.46936 0.636719 2.95135V11.0508C0.636719 11.2015 0.660315 11.348 0.70268 11.4892L0.703484 11.4917L0.704288 11.4933C0.938482 12.2988 1.74861 12.8804 2.80776 13.2976C2.82154 13.3031 2.8357 13.3083 2.84959 13.3137C2.85629 13.3163 2.86299 13.3192 2.8697 13.3218C2.93196 13.3457 2.99529 13.369 3.05953 13.3918C3.08522 13.4008 3.11155 13.4094 3.13756 13.4183C3.19623 13.4384 3.25591 13.4579 3.31614 13.477C3.33078 13.4817 3.34563 13.4868 3.36038 13.4915C3.40913 13.5067 3.45788 13.5212 3.50759 13.5358C3.55966 13.551 3.61216 13.5662 3.66525 13.5808C3.69909 13.5901 3.73314 13.5991 3.76741 13.6081C3.80682 13.6186 3.84651 13.6287 3.88646 13.6387C3.93569 13.651 3.98524 13.6632 4.03527 13.6749C4.06734 13.6824 4.09941 13.6901 4.1318 13.6974C4.18607 13.7096 4.24077 13.7214 4.2959 13.7328C4.33563 13.7411 4.37559 13.749 4.41575 13.757C4.45597 13.7649 4.49657 13.7727 4.53722 13.7803C4.59101 13.7903 4.64517 13.7999 4.69971 13.8092C4.73435 13.8151 4.76932 13.8205 4.80428 13.8261C4.85635 13.8346 4.90842 13.8432 4.96114 13.8511C5.00217 13.8571 5.04362 13.8631 5.08502 13.8688C5.14219 13.8767 5.1993 13.8849 5.25716 13.8921C5.28805 13.896 5.31942 13.899 5.35047 13.9025C5.41584 13.9103 5.48137 13.9182 5.54754 13.925C5.57285 13.9277 5.59854 13.9299 5.62396 13.9323C5.69014 13.9387 5.75647 13.9452 5.82345 13.9508C5.86447 13.9543 5.90603 13.9574 5.94732 13.9605C6.01092 13.9651 6.07453 13.9695 6.13877 13.9734C6.14649 13.9738 6.15437 13.9738 6.16209 13.9742C6.34448 13.9849 6.52922 13.9928 6.71632 13.9967C6.82154 13.9989 6.9267 14 7.03326 14C7.13982 14 7.24577 13.999 7.351 13.9967C7.41707 13.9954 7.48255 13.9925 7.54807 13.9903C7.57671 13.9894 7.60562 13.9891 7.63415 13.9879C7.73303 13.984 7.83107 13.9793 7.92855 13.9734H7.93268C7.99558 13.9696 8.05779 13.9651 8.1201 13.9605C8.16139 13.9574 8.20295 13.9543 8.24398 13.9508C8.49919 13.9297 8.74877 13.902 8.99207 13.868C9.02784 13.863 9.06355 13.8572 9.09905 13.8519C9.15558 13.8435 9.2114 13.8344 9.26717 13.8253C9.30069 13.8199 9.33447 13.8149 9.36772 13.8092C9.42226 13.7999 9.47642 13.7903 9.53021 13.7803C9.57091 13.7727 9.61145 13.7649 9.65168 13.757C9.69184 13.749 9.73179 13.7411 9.77153 13.7328C9.82666 13.7213 9.88136 13.7096 9.93563 13.6974C9.96802 13.6901 10.0001 13.6825 10.0322 13.6749C10.0822 13.6632 10.1317 13.651 10.181 13.6387C10.2209 13.6287 10.2606 13.6186 10.3 13.6081C10.3343 13.5991 10.3683 13.5901 10.4022 13.5808C10.4553 13.5662 10.5078 13.5511 10.5598 13.5358C10.6865 13.4985 10.8096 13.4595 10.9299 13.4183C10.9559 13.4095 10.9822 13.4009 11.0079 13.3918C11.0935 13.3615 11.1776 13.33 11.2597 13.2976C12.3902 12.8524 13.2403 12.22 13.4058 11.3276H13.4042C13.421 11.2371 13.4307 11.1449 13.4307 11.0509V2.95142C13.4307 2.87457 13.4235 2.79928 13.4122 2.72458C13.4104 2.68849 13.404 2.65283 13.3929 2.61845C13.3141 2.26576 13.115 1.94163 12.8435 1.66835C12.4884 1.31088 12.0058 1.01898 11.4302 0.774658C10.2787 0.285954 8.73783 0 7.03317 0ZM7.03317 0.823705C8.64407 0.823705 10.0953 1.10202 11.1075 1.53157C11.6136 1.74635 12.0079 1.99839 12.257 2.2491C12.4291 2.42237 12.5302 2.58626 12.5763 2.7438C12.4525 3.15073 11.9055 3.64912 10.9587 4.02199C9.95552 4.41705 8.56557 4.66953 7.0332 4.66953C5.50084 4.66953 4.11495 4.41705 3.11182 4.02199C2.16498 3.64912 1.61514 3.15071 1.4909 2.7438C1.53702 2.58624 1.63817 2.42237 1.81025 2.2491C2.0593 1.99839 2.45366 1.74635 2.95973 1.53157C3.97189 1.10202 5.42228 0.823705 7.03317 0.823705ZM1.46108 4.04453C1.82328 4.3369 2.28495 4.58197 2.80765 4.7878C3.93825 5.23301 5.41152 5.49326 7.03312 5.49326C8.65472 5.49326 10.1289 5.23301 11.2594 4.7878C11.7813 4.5823 12.2434 4.33788 12.606 4.04615V5.46677C12.6013 5.47942 12.5973 5.49229 12.5939 5.50538C12.5162 5.92415 11.9618 6.46331 10.9586 6.85838C9.95539 7.25345 8.56545 7.50593 7.03308 7.50593C5.50071 7.50593 4.11483 7.25345 3.11169 6.85838C2.1085 6.46332 1.55077 5.92415 1.47307 5.50538C1.46969 5.49229 1.46567 5.47942 1.461 5.46677L1.46108 4.04453ZM2.61942 5.25033C2.51077 5.25075 2.40663 5.29408 2.32978 5.37093C2.25298 5.44778 2.2096 5.55187 2.20917 5.66057C2.20874 5.76981 2.25175 5.87471 2.32865 5.95225C2.4056 6.02979 2.51018 6.0736 2.61942 6.07403C2.72919 6.07446 2.83462 6.03103 2.91227 5.95337C2.98987 5.87578 3.03331 5.77035 3.03288 5.66057C3.03245 5.55134 2.98864 5.44677 2.91109 5.36981C2.8336 5.29285 2.72866 5.2499 2.61942 5.25033ZM1.46108 6.88085C1.82328 7.17317 2.28495 7.41905 2.80765 7.62492C3.93825 8.07013 5.41152 8.32957 7.03312 8.32957C8.65472 8.32957 10.1289 8.07013 11.2594 7.62492C11.7813 7.41942 12.2434 7.17418 12.606 6.88246V8.25395C12.5936 8.28232 12.5844 8.31198 12.5786 8.34244C12.5009 8.76126 11.9433 9.29957 10.94 9.69463C9.93682 10.0897 8.55085 10.3422 7.01862 10.3422C5.52648 10.3422 4.17176 10.1028 3.17521 9.7252C2.17866 9.34756 1.58917 8.82219 1.47316 8.40921C1.46951 8.39913 1.46549 8.38921 1.4611 8.37945L1.46108 6.88085ZM2.61942 8.05205C2.51077 8.05248 2.40663 8.09581 2.32978 8.17266C2.25298 8.2495 2.2096 8.3536 2.20917 8.4623C2.20874 8.57154 2.25175 8.67643 2.32865 8.75397C2.4056 8.83152 2.51018 8.87533 2.61942 8.87576C2.72919 8.87619 2.83462 8.83275 2.91227 8.7551C2.98987 8.6775 3.03331 8.57207 3.03288 8.4623C3.03245 8.35306 2.98864 8.24849 2.91109 8.17153C2.8336 8.09457 2.72866 8.05162 2.61942 8.05205ZM12.606 9.70509V11.0508C12.606 11.0932 12.6023 11.1358 12.5948 11.1787C12.5243 11.5583 12.0616 12.0336 11.2289 12.4135C11.1887 12.4317 11.1491 12.4497 11.1074 12.4674C11.1006 12.4703 11.0934 12.4725 11.0865 12.4755C11.0297 12.4993 10.9723 12.5234 10.9128 12.5463C10.8869 12.5562 10.8603 12.5655 10.8339 12.5752C10.8054 12.5858 10.777 12.5971 10.7479 12.6074C10.7099 12.621 10.6709 12.6337 10.632 12.6468C10.5861 12.6624 10.5408 12.6777 10.4937 12.6927C10.4748 12.6986 10.4556 12.7037 10.4366 12.7096C10.3979 12.7216 10.3594 12.7342 10.3199 12.7458C10.2822 12.7568 10.2434 12.7673 10.2049 12.7779C10.1632 12.7895 10.1211 12.8014 10.0786 12.8125C10.0404 12.8225 10.0017 12.8318 9.96276 12.8415C9.93499 12.8484 9.90721 12.8556 9.87911 12.8624C9.82955 12.8743 9.77925 12.8857 9.72868 12.897C9.69147 12.9052 9.65377 12.9131 9.61607 12.9211C9.57494 12.9299 9.53391 12.9385 9.49219 12.9469C9.4517 12.955 9.41095 12.9625 9.36992 12.9702C9.3289 12.9778 9.28761 12.9854 9.24605 12.9927C9.20985 12.9991 9.17322 13.0052 9.13665 13.0112C8.99244 13.035 8.84582 13.0565 8.69584 13.0756C8.67557 13.0782 8.65508 13.0804 8.63471 13.0829C8.57373 13.0903 8.51233 13.098 8.4505 13.1046C8.42015 13.1079 8.38936 13.1103 8.3588 13.1134C8.20114 13.1291 8.04116 13.1427 7.87858 13.1528C7.87139 13.1533 7.86404 13.1532 7.85686 13.1536C7.68005 13.1644 7.50132 13.1724 7.31951 13.1762C7.22486 13.1782 7.12898 13.1794 7.03315 13.1794C6.93759 13.1794 6.84278 13.1782 6.7484 13.1762C6.55926 13.1723 6.37221 13.1643 6.18854 13.1528H6.18521C5.91166 13.1357 5.64525 13.1098 5.38644 13.0772H5.38311C4.51501 12.9675 3.73831 12.7754 3.11161 12.5285C2.10836 12.1335 1.55069 11.5976 1.47299 11.1787C1.46526 11.1358 1.46092 11.0932 1.46092 11.0508V9.7292C1.84107 10.0327 2.32854 10.284 2.88305 10.4942C4.00121 10.9179 5.43942 11.1667 7.01846 11.1667C8.64006 11.1667 10.1134 10.9064 11.2439 10.4612C11.7739 10.2525 12.2416 10.0029 12.606 9.70509ZM2.61942 10.9994C2.51077 10.9998 2.40663 11.0431 2.32978 11.12C2.25298 11.1968 2.2096 11.3009 2.20917 11.4096C2.20874 11.5188 2.25175 11.6237 2.32865 11.7013C2.4056 11.7788 2.51018 11.8226 2.61942 11.8231C2.72919 11.8235 2.83462 11.7801 2.91227 11.7024C2.98987 11.6248 3.03331 11.5194 3.03288 11.4096C3.03245 11.3004 2.98864 11.1958 2.91109 11.1188C2.8336 11.0419 2.72866 10.9989 2.61942 10.9994Z" fill="#EEEEEE"/>
</svg>
