<svg width="12" height="12" viewBox="0 0 12 12" fill="none" xmlns="http://www.w3.org/2000/svg">
<path d="M8.87468 3.50023V3.99993C8.87468 4.20712 8.70687 4.37493 8.49968 4.37493C8.29296 4.37493 8.12468 4.20712 8.12468 3.99993V3.87523H6.37484V8.12539L6.99968 8.12492C7.20687 8.12492 7.37468 8.2932 7.37468 8.49992C7.37468 8.70712 7.20687 8.87492 6.99968 8.87492H5C4.79281 8.87492 4.625 8.70712 4.625 8.49992C4.625 8.2932 4.79281 8.12492 5 8.12492H5.62484V3.87524H3.875V3.99994C3.875 4.20713 3.70672 4.37494 3.5 4.37494C3.29281 4.37494 3.125 4.20713 3.125 3.99994V3.50024C3.12734 3.29399 3.29374 3.12758 3.5 3.12524H8.49968C8.70594 3.12759 8.87234 3.29398 8.87468 3.50023Z" fill="#D1B854"/>
<path d="M2.49986 1.5H9.49992C10.0521 1.5 10.4998 2.0522 10.4998 2.49986V9.49992C10.4998 10.0521 10.0521 10.4998 9.49992 10.4998H2.49986C1.94765 10.4998 1.5 9.94757 1.5 9.49992V2.49986C1.5 1.94765 1.94766 1.5 2.49986 1.5Z" stroke="#D1B854" stroke-width="0.8" stroke-linecap="round" stroke-linejoin="round"/>
</svg>
