<svg width="12" height="12" viewBox="0 0 12 12" fill="none" xmlns="http://www.w3.org/2000/svg">
<g clip-path="url(#clip0_432_19545)">
<path d="M7.79187 7.22012C7.72467 7.22012 7.65621 7.205 7.59194 7.17308L5.79977 6.27721C5.64772 6.20119 5.55196 6.04621 5.55196 5.8761V2.7399C5.55196 2.49251 5.75273 2.29175 6.00011 2.29175C6.2475 2.29175 6.44826 2.49251 6.44826 2.7399V5.59891L7.9926 6.3713C8.21395 6.48176 8.3034 6.75141 8.19295 6.97233C8.11441 7.12899 7.95648 7.21972 7.79184 7.21972L7.79187 7.22012ZM6.00012 11.2522C3.03574 11.2522 0.624023 8.84048 0.624023 5.8761C0.624023 2.91172 3.03574 0.5 6.00012 0.5C8.9645 0.5 11.3762 2.91172 11.3762 5.8761C11.3762 8.84048 8.9645 11.2522 6.00012 11.2522ZM6.00012 1.39587C3.52959 1.39587 1.5199 3.40557 1.5199 5.8761C1.5199 8.34663 3.52959 10.3563 6.00012 10.3563C8.47065 10.3563 10.4803 8.34663 10.4803 5.8761C10.4803 3.40557 8.47065 1.39587 6.00012 1.39587Z" fill="#B3B3B3"/>
</g>
<defs>
<clipPath id="clip0_432_19545">
<rect width="12" height="12" fill="white"/>
</clipPath>
</defs>
</svg>
