<svg width="12" height="12" viewBox="0 0 12 12" fill="none" xmlns="http://www.w3.org/2000/svg">
<path d="M10.8041 2.62399C10.8032 1.8379 10.1661 1.20091 9.38006 1.19995H2.62814C1.84205 1.20089 1.20506 1.83792 1.2041 2.62399V9.37591C1.20504 10.162 1.84207 10.799 2.62814 10.8H9.38006C10.1662 10.799 10.8031 10.162 10.8041 9.37591V2.62399ZM10.0921 9.37591C10.0916 9.76872 9.77285 10.0875 9.38004 10.0879H2.62812C2.23531 10.0875 1.91655 9.76872 1.91609 9.37591V2.62399C1.91655 2.23118 2.23531 1.91243 2.62812 1.91196H9.38004C9.77285 1.91243 10.0916 2.23118 10.0921 2.62399V9.37591ZM8.03563 5.41027L5.43451 3.90835C5.20061 3.77335 4.91232 3.77288 4.67841 3.90788C4.44451 4.04335 4.30014 4.29319 4.30061 4.56319V7.43659C4.30107 7.85425 4.63857 8.19269 5.05623 8.19409C5.18936 8.19362 5.31967 8.158 5.43498 8.09143L8.03562 6.58951C8.24562 6.46764 8.37546 6.24311 8.37546 5.99982C8.37546 5.75653 8.24562 5.53201 8.03562 5.41013L8.03563 5.41027ZM5.07871 7.47415H5.07824C5.06512 7.48259 5.04777 7.48259 5.03418 7.47509C5.02058 7.46712 5.01215 7.45212 5.01262 7.43665V4.56325C5.01168 4.54731 5.02012 4.53231 5.03418 4.52481C5.04074 4.52106 5.04824 4.51872 5.05574 4.51872C5.06371 4.51872 5.07168 4.52106 5.07824 4.52528L7.63244 5.99996L5.07871 7.47415Z" fill="#D1B854"/>
</svg>
