<svg width="15" height="15" viewBox="0 0 15 15" fill="none" xmlns="http://www.w3.org/2000/svg">
<path d="M12.2395 3.19548C11.8547 3.19587 11.4802 3.31993 11.1713 3.54936C10.8624 3.77878 10.6354 4.10143 10.5238 4.46968H8.79737C8.22011 4.43883 7.65323 4.6317 7.21449 5.00807C6.80375 5.37144 6.53853 5.87124 6.46792 6.41507V7.81848C6.10646 7.60531 5.69219 7.4983 5.27269 7.5098H3.52112C3.22556 7.52321 2.93583 7.4245 2.70994 7.23343C2.5072 7.05363 2.37389 6.80854 2.33306 6.5407V4.00666C2.88301 3.8337 3.31635 3.40713 3.49796 2.86C3.67955 2.31292 3.58724 1.71181 3.24991 1.24439C2.91252 0.776935 2.37115 0.5 1.79467 0.5C1.21819 0.5 0.676837 0.776935 0.339429 1.24439C0.00209395 1.71179 -0.0902225 2.31288 0.091381 2.86C0.27297 3.40713 0.706326 3.8337 1.25628 4.00666V6.64479C1.3289 7.19142 1.59811 7.69286 2.01362 8.05537C2.44225 8.42748 2.99708 8.62142 3.56419 8.59736H5.29422C5.53914 8.58793 5.78057 8.65714 5.98337 8.79477C6.2736 9.02201 6.45154 9.3635 6.47151 9.73157V10.9878C5.90832 11.1584 5.46454 11.5942 5.28379 12.1543C5.10309 12.7143 5.20841 13.3273 5.56566 13.7949C5.92291 14.2625 6.4867 14.5252 7.07445 14.4981C7.54717 14.4982 8.00004 14.308 8.33093 13.9703C8.66182 13.6327 8.84285 13.1761 8.8332 12.7034C8.8415 12.31 8.72025 11.9246 8.48807 11.6069C8.25583 11.289 7.92561 11.0564 7.54824 10.9447V6.52269C7.58935 6.25496 7.72265 6.00993 7.92511 5.82996C8.15909 5.63322 8.45992 5.53423 8.76501 5.55359H10.5273C10.6663 5.9737 10.9555 6.32764 11.3395 6.54749C11.7235 6.76732 12.1752 6.8376 12.6078 6.74473C13.0404 6.65191 13.4235 6.40251 13.6834 6.04443C13.9434 5.68639 14.0619 5.24491 14.0162 4.80477C13.9706 4.3647 13.7639 3.95697 13.436 3.65991C13.108 3.36289 12.6819 3.19745 12.2394 3.19542L12.2395 3.19548ZM1.7839 1.57671C1.97431 1.57671 2.1569 1.65237 2.2915 1.78697C2.4261 1.92158 2.50176 2.10418 2.50176 2.29457C2.50176 2.48496 2.4261 2.66757 2.2915 2.80217C2.15689 2.93677 1.97429 3.01243 1.7839 3.01243C1.59351 3.01243 1.4109 2.93677 1.2763 2.80217C1.14171 2.66756 1.06604 2.48496 1.06604 2.29457C1.06604 2.10418 1.1417 1.92157 1.2763 1.78697C1.41091 1.65238 1.59351 1.57671 1.7839 1.57671ZM7.79596 12.7035C7.79596 12.8939 7.7203 13.0765 7.58569 13.2111C7.45109 13.3457 7.26849 13.4214 7.0781 13.4214C6.88771 13.4214 6.7051 13.3457 6.5705 13.2111C6.4359 13.0765 6.36024 12.8939 6.36024 12.7035C6.36024 12.5131 6.4359 12.3305 6.5705 12.1959C6.70511 12.0613 6.88771 11.9856 7.0781 11.9856C7.26849 11.9856 7.4511 12.0613 7.58569 12.1959C7.72029 12.3305 7.79596 12.5131 7.79596 12.7035ZM12.2395 5.73311C12.0491 5.73311 11.8665 5.65745 11.7319 5.52285C11.5973 5.38824 11.5216 5.20564 11.5216 5.01525C11.5216 4.82486 11.5973 4.64225 11.7319 4.50765C11.8665 4.37305 12.0491 4.29739 12.2395 4.29739C12.4299 4.29739 12.6125 4.37305 12.7471 4.50765C12.8817 4.64226 12.9573 4.82486 12.9573 5.01525C12.9573 5.20564 12.8817 5.38825 12.7471 5.52285C12.6125 5.65744 12.4299 5.73311 12.2395 5.73311Z" fill="#5B6168"/>
</svg>
