<svg width="12" height="12" viewBox="0 0 12 12" fill="none" xmlns="http://www.w3.org/2000/svg">
<path fill-rule="evenodd" clip-rule="evenodd" d="M1.2 0.750005C0.95147 0.750005 0.749999 0.951477 0.749999 1.2V6C0.749999 6.24853 0.951471 6.45 1.2 6.45C1.44853 6.45 1.65 6.24853 1.65 6L1.65 2.2864L9.7136 10.35H6C5.75147 10.35 5.55 10.5515 5.55 10.8C5.55 11.0485 5.75147 11.25 6 11.25H10.8C10.9193 11.25 11.0338 11.2026 11.1182 11.1182C11.2026 11.0338 11.25 10.9194 11.25 10.8L11.25 6C11.25 5.75147 11.0485 5.55 10.8 5.55C10.5515 5.55 10.35 5.75147 10.35 6L10.35 9.71361L2.28639 1.65L6 1.65C6.24853 1.65 6.45 1.44853 6.45 1.2C6.45 0.951471 6.24853 0.75 6 0.75L1.2 0.750005Z" fill="#B3B3B3"/>
</svg>
